<?xml version="1.0" encoding="UTF-8" standalone="no"?>
<!DOCTYPE svg PUBLIC "-//W3C//DTD SVG 20010904//EN"
              "http://www.w3.org/TR/2001/REC-SVG-20010904/DTD/svg10.dtd">

<svg xmlns="http://www.w3.org/2000/svg"
     width="108.374mm" height="108.374mm"
     viewBox="0 0 1280 1280">
  <path id="Selection"
        fill="000000" stroke="black" stroke-width="1"
        d="M 605.00,1.14
           C 605.00,1.14 648.00,1.14 648.00,1.14
             648.00,1.14 668.00,1.14 668.00,1.14
             668.00,1.14 681.00,1.96 681.00,1.96
             718.70,3.61 757.37,9.97 794.00,19.13
             903.65,46.54 1003.20,100.79 1085.00,179.04
             1171.10,261.39 1232.53,369.62 1261.37,485.00
             1270.76,522.56 1277.35,561.32 1279.04,600.00
             1279.04,600.00 1280.00,611.00 1280.00,611.00
             1280.00,611.00 1280.00,668.00 1280.00,668.00
             1280.00,668.00 1279.09,680.00 1279.09,680.00
             1279.09,680.00 1277.17,705.00 1277.17,705.00
             1273.07,745.97 1265.16,786.55 1253.28,826.00
             1195.52,1017.79 1048.09,1175.02 859.00,1242.31
             813.32,1258.56 770.06,1269.01 722.00,1275.28
             722.00,1275.28 680.00,1279.09 680.00,1279.09
             680.00,1279.09 668.00,1280.00 668.00,1280.00
             668.00,1280.00 611.00,1280.00 611.00,1280.00
             611.00,1280.00 586.00,1278.09 586.00,1278.09
             534.96,1274.36 484.49,1263.16 436.00,1247.00
             373.97,1226.32 314.67,1195.94 262.00,1157.12
             207.97,1117.28 161.75,1071.48 122.42,1017.00
             65.22,937.76 25.84,845.49 9.75,749.00
             6.00,726.46 2.96,703.81 1.96,681.00
             1.96,681.00 1.00,670.00 1.00,670.00
             1.00,670.00 1.00,613.00 1.00,613.00
             1.00,613.00 1.96,600.00 1.96,600.00
             2.88,578.91 5.47,557.85 8.92,537.00
             19.13,475.32 38.01,415.30 65.26,359.00
             77.65,333.40 92.23,308.66 108.00,285.00
             191.32,160.03 310.97,72.48 454.00,28.02
             483.85,18.75 522.97,10.37 554.00,6.28
             554.00,6.28 592.00,2.17 592.00,2.17
             592.00,2.17 605.00,1.14 605.00,1.14 Z
           M 640.00,25.45
           C 640.00,25.45 593.00,27.17 593.00,27.17
             550.20,31.25 511.48,37.60 470.00,49.43
             306.24,96.11 166.40,212.74 90.27,365.00
             6.03,533.47 3.60,736.28 85.74,906.00
             98.43,932.22 112.39,957.82 128.74,982.00
             169.50,1042.27 217.37,1092.90 276.00,1136.12
             326.70,1173.49 384.24,1203.41 444.00,1223.33
             491.90,1239.30 537.85,1248.31 588.00,1253.17
             588.00,1253.17 611.00,1255.16 611.00,1255.16
             611.00,1255.16 642.00,1255.16 642.00,1255.16
             642.00,1255.16 668.00,1255.16 668.00,1255.16
             668.00,1255.16 680.00,1254.09 680.00,1254.09
             680.00,1254.09 709.00,1251.83 709.00,1251.83
             797.64,1242.96 890.60,1209.54 966.00,1162.58
             1021.08,1128.27 1069.85,1085.51 1111.73,1036.00
             1243.88,879.74 1287.47,666.06 1231.57,470.00
             1209.44,392.37 1172.56,322.63 1123.12,259.00
             1080.90,204.67 1024.41,154.80 966.00,118.42
             966.00,118.42 918.00,91.31 918.00,91.31
             918.00,91.31 906.00,85.74 906.00,85.74
             883.58,74.89 860.63,65.54 837.00,57.67
             797.09,44.36 750.88,33.36 709.00,29.17
             709.00,29.17 680.00,26.91 680.00,26.91
             680.00,26.91 668.00,26.00 668.00,26.00
             668.00,26.00 640.00,25.45 640.00,25.45 Z
           M 605.00,38.14
           C 605.00,38.14 647.00,38.14 647.00,38.14
             647.00,38.14 667.00,38.14 667.00,38.14
             667.00,38.14 679.00,38.91 679.00,38.91
             714.87,41.37 750.05,46.39 785.00,55.13
             887.89,80.85 982.29,132.67 1059.00,206.04
             1059.00,206.04 1081.09,229.00 1081.09,229.00
             1150.37,303.49 1199.70,394.31 1224.37,493.00
             1233.29,528.67 1238.58,564.38 1241.09,601.00
             1241.09,601.00 1242.00,611.00 1242.00,611.00
             1242.00,611.00 1242.00,667.00 1242.00,667.00
             1242.00,667.00 1241.09,679.00 1241.09,679.00
             1241.09,679.00 1238.15,712.00 1238.15,712.00
             1233.52,750.81 1225.57,786.68 1213.98,824.00
             1204.66,853.96 1192.26,882.97 1178.25,911.00
             1107.67,1052.15 985.92,1157.97 837.00,1209.66
             798.81,1222.91 759.06,1232.06 719.00,1237.28
             719.00,1237.28 679.00,1241.09 679.00,1241.09
             679.00,1241.09 667.00,1242.00 667.00,1242.00
             667.00,1242.00 611.00,1242.00 611.00,1242.00
             611.00,1242.00 601.00,1241.09 601.00,1241.09
             601.00,1241.09 561.00,1237.28 561.00,1237.28
             518.45,1231.73 476.32,1221.80 436.00,1207.05
             355.23,1177.51 283.26,1133.51 221.00,1073.96
             221.00,1073.96 198.91,1051.00 198.91,1051.00
             128.50,975.30 80.17,885.18 55.13,785.00
             46.39,750.05 41.37,714.87 38.91,679.00
             38.91,679.00 38.00,669.00 38.00,669.00
             38.00,669.00 38.00,613.00 38.00,613.00
             38.00,613.00 38.91,601.00 38.91,601.00
             38.91,601.00 42.85,560.00 42.85,560.00
             49.86,501.38 68.71,439.58 93.31,386.00
             161.55,237.40 288.85,123.84 443.00,70.34
             475.84,58.95 514.60,49.34 549.00,44.27
             549.00,44.27 582.00,40.17 582.00,40.17
             582.00,40.17 605.00,38.14 605.00,38.14 Z
           M 640.00,61.45
           C 640.00,61.45 594.00,63.17 594.00,63.17
             556.17,66.77 518.60,72.99 482.00,83.43
             344.84,122.53 229.42,209.07 152.31,329.00
             139.50,348.92 126.19,372.48 116.31,394.00
             91.47,448.08 74.42,503.92 66.72,563.00
             66.72,563.00 62.91,602.00 62.91,602.00
             62.91,602.00 61.84,614.00 61.84,614.00
             61.84,614.00 61.84,642.00 61.84,642.00
             61.84,642.00 61.84,669.00 61.84,669.00
             61.84,669.00 62.91,679.00 62.91,679.00
             65.04,710.13 69.45,740.53 76.35,771.00
             106.47,904.06 187.31,1027.66 298.00,1107.58
             346.76,1142.78 397.89,1169.96 455.00,1189.00
             502.47,1204.82 539.34,1212.20 589.00,1217.17
             589.00,1217.17 612.00,1219.16 612.00,1219.16
             612.00,1219.16 642.00,1219.16 642.00,1219.16
             642.00,1219.16 667.00,1219.16 667.00,1219.16
             667.00,1219.16 679.00,1218.09 679.00,1218.09
             702.50,1216.48 725.80,1213.74 749.00,1209.39
             866.65,1187.33 980.27,1125.63 1061.91,1038.00
             1102.70,994.22 1139.67,941.50 1164.69,887.00
             1189.53,832.92 1206.58,777.08 1214.28,718.00
             1214.28,718.00 1218.09,679.00 1218.09,679.00
             1218.09,679.00 1219.16,667.00 1219.16,667.00
             1219.16,667.00 1219.16,639.00 1219.16,639.00
             1219.16,639.00 1219.16,612.00 1219.16,612.00
             1219.16,612.00 1218.09,602.00 1218.09,602.00
             1218.09,602.00 1212.08,548.00 1212.08,548.00
             1203.18,494.21 1187.54,442.35 1164.22,393.00
             1135.32,331.84 1095.78,276.78 1048.00,229.00
             1007.74,188.74 956.01,150.77 905.00,125.25
             847.88,96.67 786.47,75.84 723.00,67.28
             723.00,67.28 679.00,62.91 679.00,62.91
             679.00,62.91 667.00,62.00 667.00,62.00
             667.00,62.00 640.00,61.45 640.00,61.45 Z
           M 920.00,693.00
           C 922.14,693.01 924.97,692.91 927.00,693.51
             927.00,693.51 949.00,707.99 949.00,707.99
             965.93,717.89 990.23,726.97 1010.00,727.00
             1010.00,727.00 1020.00,727.00 1020.00,727.00
             1036.24,726.92 1061.33,719.41 1059.90,699.00
             1059.38,691.50 1053.98,686.08 1048.00,682.10
             1038.54,675.82 1016.66,671.57 1005.00,669.20
             970.90,662.27 934.98,648.91 924.74,612.00
             923.33,606.91 922.07,599.26 922.00,594.00
             921.86,581.65 921.48,576.07 925.34,564.00
             937.14,527.19 982.40,506.06 1019.00,506.00
             1019.00,506.00 1045.00,506.00 1045.00,506.00
             1060.44,506.18 1084.13,511.35 1099.00,515.98
             1102.94,517.20 1113.87,520.12 1115.98,523.39
             1117.22,525.32 1117.00,528.75 1117.00,531.00
             1117.00,531.00 1117.00,582.00 1117.00,582.00
             1114.83,581.99 1112.05,582.12 1110.00,581.42
             1110.00,581.42 1088.00,567.86 1088.00,567.86
             1076.04,561.33 1054.65,554.16 1041.00,554.00
             1027.29,553.84 1011.45,553.41 1000.00,562.39
             990.67,569.70 985.56,579.00 992.48,589.96
             999.93,601.76 1022.23,605.03 1035.00,608.13
             1066.57,615.79 1108.20,624.28 1121.99,658.00
             1126.68,669.49 1126.37,674.27 1127.25,686.00
             1127.82,693.63 1126.71,703.56 1124.87,711.00
             1123.13,718.03 1120.26,724.78 1116.55,731.00
             1099.34,759.85 1059.47,774.95 1027.00,775.00
             1027.00,775.00 999.00,775.00 999.00,775.00
             980.95,774.97 954.94,768.91 938.00,762.58
             934.20,761.15 923.01,757.69 921.02,754.61
             919.78,752.68 920.00,749.26 920.00,747.00
             920.00,747.00 920.00,693.00 920.00,693.00 Z
           M 152.00,511.00
           C 152.00,511.00 229.00,511.00 229.00,511.00
             229.00,511.00 245.69,549.00 245.69,549.00
             245.69,549.00 270.30,604.00 270.30,604.00
             270.30,604.00 284.00,636.00 284.00,636.00
             284.00,636.00 286.00,636.00 286.00,636.00
             286.00,636.00 301.14,601.00 301.14,601.00
             301.14,601.00 328.78,539.00 328.78,539.00
             328.78,539.00 337.30,520.00 337.30,520.00
             337.30,520.00 341.70,511.99 341.70,511.99
             341.70,511.99 349.00,511.00 349.00,511.00
             349.00,511.00 418.00,511.00 418.00,511.00
             418.00,511.00 418.00,770.00 418.00,770.00
             418.00,770.00 352.00,770.00 352.00,770.00
             352.00,770.00 352.00,656.00 352.00,656.00
             352.00,656.00 352.00,622.00 352.00,622.00
             352.00,622.00 351.00,602.00 351.00,602.00
             351.00,602.00 339.42,631.00 339.42,631.00
             339.42,631.00 316.42,685.00 316.42,685.00
             316.42,685.00 309.72,701.00 309.72,701.00
             309.72,701.00 305.59,707.98 305.59,707.98
             305.59,707.98 298.00,709.00 298.00,709.00
             298.00,709.00 268.00,709.00 268.00,709.00
             268.00,709.00 260.65,708.01 260.65,708.01
             260.65,708.01 256.40,700.00 256.40,700.00
             256.40,700.00 249.15,683.00 249.15,683.00
             249.15,683.00 214.00,601.00 214.00,601.00
             214.00,601.00 214.00,770.00 214.00,770.00
             214.00,770.00 152.00,770.00 152.00,770.00
             152.00,770.00 152.00,511.00 152.00,511.00 Z
           M 580.00,511.00
           C 580.00,511.00 673.00,511.00 673.00,511.00
             695.27,511.00 718.17,509.85 739.00,519.31
             749.53,524.09 758.83,531.80 764.49,542.00
             774.24,559.59 772.92,586.95 762.54,604.00
             754.96,616.45 748.04,620.14 736.00,627.00
             753.03,631.97 767.41,637.92 778.21,653.00
             787.76,666.34 788.18,681.36 788.00,697.00
             787.70,722.71 772.55,743.73 751.00,756.55
             726.52,771.11 702.19,770.00 675.00,770.00
             675.00,770.00 580.00,770.00 580.00,770.00
             580.00,770.00 580.00,511.00 580.00,511.00 Z
           M 646.00,613.00
           C 646.00,613.00 667.00,612.00 667.00,612.00
             677.49,611.98 684.56,612.51 693.95,606.53
             707.50,597.97 707.30,572.19 693.95,563.48
             684.61,557.42 669.84,559.02 659.00,559.00
             659.00,559.00 646.00,558.00 646.00,558.00
             646.00,558.00 646.00,613.00 646.00,613.00 Z
           M 646.00,723.00
           C 646.00,723.00 665.00,722.00 665.00,722.00
             679.98,721.98 694.75,723.70 708.00,715.04
             724.16,704.46 724.86,673.72 708.00,663.48
             695.38,655.81 679.24,658.16 665.00,658.00
             665.00,658.00 646.00,657.00 646.00,657.00
             646.00,657.00 646.00,723.00 646.00,723.00 Z" />
</svg>
