<?xml version="1.0" encoding="UTF-8" standalone="no"?>
<!-- Created with Inkscape (http://www.inkscape.org/) -->

<svg
   width="286.75235"
   height="286.62228"
   viewBox="0 0 286.75235 286.62228"
   version="1.1"
   id="svg1"
   xml:space="preserve"
   xmlns:xlink="http://www.w3.org/1999/xlink"
   xmlns="http://www.w3.org/2000/svg"
   xmlns:svg="http://www.w3.org/2000/svg"><defs
     id="defs1"><color-profile
       name="sRGB-IEC61966-2.1"
       xlink:href="../../../../../../Windows/system32/spool/drivers/color/sRGB%20Color%20Space%20Profile.icm"
       id="color-profile1" /><filter
       style="color-interpolation-filters:sRGB"
       id="filter2"
       x="-0.015253749"
       y="-0.01525375"
       width="1.0305075"
       height="1.0305075"><feGaussianBlur
         stdDeviation="1.8560012"
         id="feGaussianBlur2" /></filter><filter
       style="color-interpolation-filters:sRGB"
       id="filter3"
       x="-0.0030389114"
       y="-0.0029999968"
       width="1.0060778"
       height="1.006"><feGaussianBlur
         stdDeviation="0.36502559"
         id="feGaussianBlur3" /></filter><filter
       style="color-interpolation-filters:sRGB"
       id="filter3-3"
       x="-0.0037141105"
       y="-0.0035571464"
       width="1.0074282"
       height="1.0071143"><feGaussianBlur
         stdDeviation="0.36502559"
         id="feGaussianBlur3-8" /></filter></defs><g
     id="layer1"
     transform="translate(-6.6238165,-6.6888499)"><path
       id="path1"
       style="opacity:1;fill:#0e0d0e;filter:url(#filter2)"
       d="M 292.50528,155.71176 A 146.0101,146.0101 0 0 1 146.49518,301.72186 146.0101,146.0101 0 0 1 0.4850769,155.71176 146.0101,146.0101 0 0 1 146.49518,9.7016602 146.0101,146.0101 0 0 1 292.50528,155.71176 Z"
       transform="matrix(0.95289043,0,0,0.95245822,10.406149,1.6910567)" /><path
       id="path2"
       style="opacity:0.691176;fill:#f79515;fill-opacity:1;filter:url(#filter3)"
       d="M 146.49518,9.7013704 A 146.0101,146.0101 0 0 0 92.76312,20.313935 100.01421,105.34703 0 0 1 185.12768,125.32085 100.01421,105.34703 0 0 1 85.112677,230.66703 100.01421,105.34703 0 0 1 4.223786,186.84849 146.0101,146.0101 0 0 0 146.49518,301.72215 146.0101,146.0101 0 0 0 292.50511,155.71176 146.0101,146.0101 0 0 0 146.49518,9.7013704 Z"
       transform="matrix(0.68261979,-0.1480442,0.14764114,0.68076133,27.039693,65.961952)" /><path
       id="path2-7"
       style="opacity:0.691176;fill:#f79515;fill-opacity:1;filter:url(#filter3-3)"
       d="M 132.86206,19.475675 A 124.71341,123.06668 12.236896 0 0 115.12081,18.173817 124.71341,123.06668 12.236896 0 0 93.265714,20.401371 100.01421,105.34703 0 0 1 185.12753,125.32181 100.01421,105.34703 0 0 1 85.112812,230.66694 100.01421,105.34703 0 0 1 4.2244349,186.84758 146.0101,146.0101 0 0 0 9.4971219,205.01331 124.71341,123.06668 12.236896 0 0 115.79897,264.45542 124.71341,123.06668 12.236896 0 0 240.09778,141.65713 124.71341,123.06668 12.236896 0 0 132.86206,19.475675 Z"
       transform="matrix(0.68261979,-0.14989072,0.14764114,0.68925231,28.167283,64.976711)" /><circle
       style="opacity:0.691176;fill:#808080;fill-opacity:1"
       id="path4"
       cx="187.04541"
       cy="184.07643"
       r="5.5138102" /><circle
       style="opacity:0.691176;fill:#808080;fill-opacity:1"
       id="path5"
       cx="189.59024"
       cy="141.23837"
       r="6.3620887" /><circle
       style="opacity:0.691176;fill:#808080;fill-opacity:1"
       id="path6"
       cx="213.12997"
       cy="105.39861"
       r="6.1500192" /><ellipse
       style="opacity:0.691176;fill:#808080;fill-opacity:1"
       id="path7"
       cx="231.1559"
       cy="165.20224"
       rx="4.2413926"
       ry="6.5741582" /><ellipse
       style="opacity:0.691176;fill:#808080;fill-opacity:1"
       id="path8"
       cx="152.05392"
       cy="236.66971"
       rx="9.1189938"
       ry="6.3620887" /><ellipse
       style="opacity:0.691176;fill:#808080;fill-opacity:1"
       id="path9"
       cx="129.78661"
       cy="219.70413"
       rx="5.9379497"
       ry="3.8172534" /><circle
       style="opacity:0.691176;fill:#808080;fill-opacity:1"
       id="path10"
       cx="176.64801"
       cy="84.2752"
       r="7.4977937" /></g></svg>
